<svg xmlns="http://www.w3.org/2000/svg" width="30" height="30"><path fill="#82699d" d="M30 15c0 8.285-6.715 15-15 15-8.284 0-15-6.715-15-15C0 6.719 6.716 0 15 0c8.285 0 15 6.718 15 15zm-5.557-4.98a7.57 7.57 0 01-2.171.595 3.79 3.79 0 001.662-2.092c-.73.433-1.54.748-2.4.917a3.78 3.78 0 00-6.441 3.448A10.731 10.731 0 017.3 8.938a3.78 3.78 0 001.17 5.047 3.771 3.771 0 01-1.712-.472v.048a3.783 3.783 0 003.032 3.706 3.773 3.773 0 01-1.707.065 3.784 3.784 0 003.531 2.625 7.585 7.585 0 01-4.695 1.618 7.76 7.76 0 01-.901-.053 10.7 10.7 0 005.794 1.699c6.953 0 10.755-5.76 10.755-10.756 0-.163-.003-.326-.01-.489a7.681 7.681 0 001.886-1.957z"/></svg>